<mxfile host="Electron" modified="2024-01-09T00:31:10.381Z" agent="Mozilla/5.0 (Windows NT 10.0; Win64; x64) AppleWebKit/537.36 (KHTML, like Gecko) draw.io/22.1.16 Chrome/120.0.6099.109 Electron/28.1.0 Safari/537.36" etag="PlmEbOe8qZvmm893W7_1" version="22.1.16" type="device">
  <diagram name="Page-1" id="W49EQqd4daAgTImcBUeA">
    <mxGraphModel dx="1354" dy="755" grid="0" gridSize="10" guides="1" tooltips="1" connect="1" arrows="1" fold="1" page="0" pageScale="1" pageWidth="850" pageHeight="1100" math="0" shadow="0">
      <root>
        <mxCell id="0" />
        <mxCell id="1" parent="0" />
        <mxCell id="QRYlAzgC1I8QXgdtpKgS-15" value="" style="edgeStyle=none;curved=1;rounded=0;orthogonalLoop=1;jettySize=auto;html=1;fontSize=12;startSize=8;endSize=8;" parent="1" source="QRYlAzgC1I8QXgdtpKgS-1" target="QRYlAzgC1I8QXgdtpKgS-4" edge="1">
          <mxGeometry relative="1" as="geometry" />
        </mxCell>
        <mxCell id="QRYlAzgC1I8QXgdtpKgS-1" value="Text/Image" style="rounded=1;whiteSpace=wrap;html=1;fontSize=16;fillColor=#dae8fc;strokeColor=#6c8ebf;" parent="1" vertex="1">
          <mxGeometry x="-150" y="169" width="120" height="60" as="geometry" />
        </mxCell>
        <mxCell id="QRYlAzgC1I8QXgdtpKgS-2" value="Input Query" style="text;html=1;align=center;verticalAlign=middle;resizable=0;points=[];autosize=1;strokeColor=none;fillColor=none;fontSize=16;" parent="1" vertex="1">
          <mxGeometry x="-141" y="229" width="102" height="31" as="geometry" />
        </mxCell>
        <mxCell id="QRYlAzgC1I8QXgdtpKgS-18" style="edgeStyle=none;curved=1;rounded=0;orthogonalLoop=1;jettySize=auto;html=1;exitX=1;exitY=0.5;exitDx=0;exitDy=0;entryX=0;entryY=0.5;entryDx=0;entryDy=0;fontSize=12;startSize=8;endSize=8;" parent="1" source="QRYlAzgC1I8QXgdtpKgS-4" target="QRYlAzgC1I8QXgdtpKgS-6" edge="1">
          <mxGeometry relative="1" as="geometry" />
        </mxCell>
        <mxCell id="QRYlAzgC1I8QXgdtpKgS-4" value="CLIP ViT" style="shape=step;perimeter=stepPerimeter;whiteSpace=wrap;html=1;fixedSize=1;fontSize=16;fillColor=#d5e8d4;strokeColor=#82b366;" parent="1" vertex="1">
          <mxGeometry x="17.5" y="159" width="130" height="80" as="geometry" />
        </mxCell>
        <mxCell id="QRYlAzgC1I8QXgdtpKgS-5" value="Transformer" style="text;html=1;align=center;verticalAlign=middle;resizable=0;points=[];autosize=1;strokeColor=none;fillColor=none;fontSize=16;" parent="1" vertex="1">
          <mxGeometry x="25" y="239" width="105" height="31" as="geometry" />
        </mxCell>
        <mxCell id="QRYlAzgC1I8QXgdtpKgS-6" value="&lt;font style=&quot;font-size: 15px;&quot;&gt;&lt;font face=&quot;Lucida Console&quot;&gt;[0.42, 0.05, 0.98...]&lt;/font&gt;&lt;sub style=&quot;&quot;&gt;&lt;font face=&quot;Tahoma&quot;&gt;512&lt;/font&gt;&lt;/sub&gt;&lt;/font&gt;" style="rounded=0;whiteSpace=wrap;html=1;fontSize=16;" parent="1" vertex="1">
          <mxGeometry x="249" y="179" width="248" height="38" as="geometry" />
        </mxCell>
        <mxCell id="QRYlAzgC1I8QXgdtpKgS-9" value="Vector-Embedding" style="text;html=1;align=center;verticalAlign=middle;resizable=0;points=[];autosize=1;strokeColor=none;fillColor=none;fontSize=16;" parent="1" vertex="1">
          <mxGeometry x="298" y="217" width="150" height="31" as="geometry" />
        </mxCell>
        <mxCell id="QRYlAzgC1I8QXgdtpKgS-10" value="" style="shape=cylinder3;whiteSpace=wrap;html=1;boundedLbl=1;backgroundOutline=1;size=15;fontSize=16;fillColor=#ffe6cc;strokeColor=#A17400;" parent="1" vertex="1">
          <mxGeometry x="542.5" y="135" width="84" height="126" as="geometry" />
        </mxCell>
        <mxCell id="QRYlAzgC1I8QXgdtpKgS-13" value="" style="shape=image;verticalLabelPosition=bottom;labelBackgroundColor=default;verticalAlign=top;aspect=fixed;imageAspect=0;image=data:image/png,iVBORw0KGgoAAAANSUhEUgAAAMgAAADICAYAAACtWK6eAAAgl0lEQVR4nOzdd3Rb5f0/8PeVLFl7eO+97Xg7iR2vrCYQMlgtpFAIEKClZZUSCKusAqUUUkppC78GKFBOGU0CZYaQvWyHeI/YjmXJe8qyrGXp/o5V/C3QxPGQdK+k53VO/iix7v009tv3uc/0oWkahOuN683cD/a1/rSuse9RAH7n+TKbTMZ/Y+sV2fcEB4iHXFwiAYAiAXG9mkZ11L++VP1NP2FZOasP0HRH4dLwWy4tS/7c6cUR30EC4kJ7m/pzqo+cvb13aOIqChDM9fNiEe9YVpLyD6uKE9+TiPiTzqmS+DYSEBdoVw2F/uPjphe1OvPljrgeDbRetjLx+sK8iCOOuB5xfiQgTjQybsbhCtXlhyo0fwQQ4uDLm6PCZM9vKI97MipCqXPwtYlvkIA4ycFKdfahCvXzWp2p3Mm36inJj3igJD/yNYVMQL6ZDkYC4mB9g3r5//vnyWdHx3EDAK6r7jvJtVZevy7z+syUoHpX3dMbkIA4SO+gXrbn664bWk9pfgWKCmOiBhq0UR6h3Lk+N/zFrJSgRiZq8DQkIAs0Omb0+Whfy89qWoYemWE8w9VsMhnvrWvXL9oWHS7vYboYd0YCsgDHTmkKPtjb8hoFKo3pWs5jPDMp8PZrNmXsZLoQd0UCMg+dmn7Rnv3qbZ3dY/diHuMZriaX+v67ND/w7pKCxBama3E3JCBzoNUaqINVXVcdqux8BqAima5njsxRYbIX169IfDw6TKZluhh3QQIyCzqDZao5ddmxU12P6g2WDKbrWRAaowmLQn67YUnkjhB/yQTT5bAdCcgFHKpQ5x6sVL+g1ZlKmK7Fsei+kvzI7SUFka8ppAIb09WwFQnIeai6tEFv7ap/clRv2uLK8QxXm+RaqzaVJt9RWhBJpq2cAwnIOfz1i+Yft37d9RJAyZmuxVVC/PnP33Bl3n0KmcDMdC1sQgLyLdXNA3Ef7jvzuzGd6VKma2EETbeW5kf+8pKViXuYLoUtSEAAHDndvfh4lfr2vqGJKwHwma6HaWIRryIryf8Pa0oT3hEKeF49rd6rA9Kp6Re9+1nHH/qG9DcyXQsbiUW8E6XLIq5fnhPTxHQtTPHKgIzqjNTBCvXmw5XqZwAqnOl62I02R4XKX9qwPOGxqAj5KNPVuJrXBeRgRWfB25WaHTKdqZDpWtwKjYGYgoiHNhdEvuJN3cJeE5DeQX3Aq+9WT72AXwuAw3Q97oqiUf3jjenXZaYEVTNdiyt4RUB2729be+SE6s+gqGima/EQhpgQ2eObN6U/r5AJjEwX40weG5DxCTPvi8Mtl9c0j96hN1iWMl2PZ6K7M5ODX16cH/rXpHC/fqarcQaPDMieKnXRoS9bX6OARKZr8Q60ITMp6O6yTRl/drcZnBfiUQHp1IxI93zV9mBnj+4uADym6/E2Mqnv3tKC8LtK86PrmK7FUTwiIKM6I+dQhea6gxWdv6EoytG7hxBzQluiwuR/Wb8i4dfRYXK33w3S7QNS3dSf/vbu+p00hQKmayG+Y7goO+yWTT9Ifo/pQhbCbQNS3dSf+uWhltt7R8zXAZSQ6XqIcxOJfPYtyw7eUZgb85FExHe78RO3C4iqSxv+1q7a34zoLddQZDzDbVA0arJWJNy5uSDyK6ZrmQu3Csgbexq21DX17QAgZboWYn6CAkQv3XRl1j0KqXuMn7hFQA6fVCcfqFL/XqszXcx0LYQD0OgoKYjcVrQ07J/+IhHT1cyI1QFRdY/KP/yy7ZHOHu3PAcrju205ViukOi20CrZsr+Vccin/YEl+9B2lBRGnma7lfFgZkN5BvWj3yc472mp77wUFBdP1OJuv0YCU5lqkN1RDNKHHmfhU1GXkYCggiOnSXMEaFih4c+XS+McWpQa1M13M97EqINoxI+dgpWbLwYrOJ7xhPINjncSi2lPIPX0SfMt3V7pOfVfOxibi2OJSjMu8YuXvZFSo7JX1KxMejg6TDzJdzDTWBORgReeyPfvbd3BoOo/pWlwhuLcLyw98BvnYzEssJrlcHFtShoa0LICiXFYfg0ayEv1/vXFNyksSEd/KdDGMB2R0zOj76ruVT/UPWe5itBAX4ZlNyP36BDJrT4FDz35YoCs0EkcLyzDs7xXNLoiFvK/WXxR/fW5CaCeTdTAWEDWA6i9bNhyo6vqdV0wqpGkkN9dhceURiAzz26/NRlFoSs5ARf4yGIXs7v1xDNoQFaZ4tnxD2jMZMgEjm9y5PCAGo8Xns4NtV1U3D96hN1jyXXpzJtA0EtqakFd1DIoLNKdmy+LDQ/WiPNRk5sHC93XINdmMBj2QmRz0l5VLo18IC5a6dH6XSwNyqKIzed/xztf1BssSl92UQUF93Vh2bD+CBnqdcn2jrwCVuYX29xOa4/mTCmjQfaX5UXeW5oW9I5e75gnqkoB0arTyPftbH+nsHvu5N0xDF4/rsLjiEBJbm+CK1+phhR+OFi5HV4R3LJiUS3wPlRRE3FlaEHXK2fdyakDGJ8ycXZ/X3lTTPPYEKAQ67UYsktxUa39q8CYtLr3v1HexMWURji0txyTP438HTbGKFT47b70s997gAPGIs27itIAc7tKG7/ug5v+NGybXOOUGLKMYGULR8f2I1KgYrUMnkeJEQQna4pO9o1vYhvbslQk3by6I/NIZl3d4QKqb+jM/P6q6fWBwfDMAz56GTgMhvRosqjuFGFUbOCwZU5oypAywj8a3JKbCxvVhuhynEwt5hwtzw14oyonY5cjxE4cFpKaxP/rDr1qf0Y6bfuSQC7Ic32RC8ZG9SGxrZrqUGQ36BWJ/+RoMecn4CWg0leZH3H3JysRPHHG5BQdEDeDA7rpba5oHngPg8Z3zlM32f+MZQqOB6XJmxfvGT+zT6l+9dF3SnfHBSv1CrrOggByo1GQcOtn5/Ni4adVCinAXIT0aLDv2FQKGBpguZV5MfD6qcgtRl57jFd3CADTF+RHby/Ii35TLBfP6QZ9XQFRdWr8P97U+1tkzdgsAj2/gcq2TWHLiIDLqT7uk29bZukPCsb9sLXTeMQkSOonv8asLIu4oLYg6OdfPzjkgb37UuL2moXcbANlcb+ZuhBMTSG2qQVpjNcQTC3pSs46Vw0FbbBLqMnIxEOTxE6dBA3Swv+CdK9ck3RYd4T/rbuE5B+T9vV1dHZ39YX2DnrvRN8c6iZzTJ5FdXQkfq2cfjzH13VdFxeHwspXQSzx3JfPo6CiqqirxxLYr8i9akVM128/NuXnE8+EiKS4MocFKtKv6MDbuWQelKkcGUb7/UwQNeuROmv9jqskY09mO4P4eHC0sR2t8ikeNn5hMJtTX10Ol6pjX5+f9/iAVC5GZGo2B4TG0q3phmWR86v6C+BoNyDt1zL6qj03jGa4iNBqw8qtP7P//p4IyEOjezS6bzYa2tjY0NTVicnL+rYAFvWBTFIUgfznkUhFaO3oxPKpbyOUYQdlsSG2sRkHVMQhMbrHRhlOF9HXj0l1vozkpHceXlMEkEDBd0pzp9Xp7c2poaOETfx3SA+XL5yE9KRI6vQFdvUMYHNaB6YVYF0TTiO5stz81Ar2kOTVbUw2slJZ6RKnPonpRPppSMmD2ZX9QhoeH7U+Nri6Nw37+HNpFO9XsSomPgDHCjPbOfgyNjDny8g4T2q1G0bGvEDDMmqXPrCQyTKDw5EHkfX0cVTlL7VNXbFz2HRmvG9ehrrYWvb2OX1bglDEMgS8faYkR6B/Soq2jB5NWduw4KdFpsfTEQcSdPeMR4xmuwreY7UFJbarB8aVlUEXHM12S3dRTorX1jP0l3FktFqcO8k29nyhlYnR0DaC332kzki+MBtIaTqPwxAH4WN27M4FJirFRrP18N5oT03Bk2QpYeMydmD0yPIya2hp7s8qZnD4KzuP5IDEmFKFBSntvl1bn2m5hv6F++/qMsB6NS+/ryZLPNCBCo8LJxcVoSUxzabew0WhEfX0dOjtds5eDy6aJSEQCZKZEY3BEh86uAegNJufdjKYR3q1GRt0p+4s4aU45ntigt29blH36pP3dpDkpA1Yf5/04mc1mtLS0oL29DVYXtgJcO4+KohDgJ4O/Umrv6Tqr7oXJ7NiRal+jAaWHvkBcR6tDr0ucm1I7gpIj+5Befxr7y9ZgICjUode3j2e0tqKpuWlB4xnzxchEQ4qiEOg/FRQJ1D2D0HQPwbbAlyzKZkNaQzXyTx2FwOTEpxNxTn6jw7h09z9wJiEVJxaXYEIsWfA1e3p6UFtbYx/XYAqjM3E5HA6iw4Pgp5Cipb0bE/Nsdk21hwuP7YffqNuf+OXWppqySa2NiO1oxansxajJzJ9Xt/CkxYLTNdVQu+g9YyasmKouFQuRmxGHnv5hqLoGMTnLaSvcSQuKju1HWlOt02skZo83acGSyiP2Zchfla+d9W71NE3bX74bGurtL+NswIqA4JtmV1iwPwL9FVBpBuxhOS+aRnx7s32NhlQ/7soyiTkIHujFle+/gbr0bJzKLYR5hk3uhoeG7N22IyMMDgecA2sCMo3nw0VCTAhCAuVQdQ1gePS/AeBYrUg602DvnfIfIc0pd8C12ZBVewopzfX2Zb/VmfkwiMT/9/c63RgaGxvR1dXFaJ3nw7qATJOIhUhPisL4hNE+fsLt6MDy/Z8hYNg9l7t6O1+zCVm1VUhuqcfxxSWoiY5HXUODy8Yz5ou1AZkmEQmwKDUaSS89Cx7pnXJ7ApMR5Ye+wOfVNejks39XKLdYuU+BAseDFvGcCw2gNS4JB4tXwcTgFA5XcZfvJuufIN5gwD8IR4qWoy8k3P6/z8YkoKDiCFJb6kCxfdmAhyMBYcjUj70mPNo+TaMzMvY785mMQhEOla5GdVa+fSeVlOZa8BgYRSZIQBhhEAhxoGQ1VDEJM37dmFyJo0XLUZ+WhfKDn9tX+xGuRQLiQlYOB/Vp2ajKXTqnFXpahR92r/+Rfexn6YlDkOjdb2mzuyIBcRFVZKx9jfeocp5noFMU2uJT0BEdj+zqCvsfsrbF+UhAnMziw8ORonI0Jy9yyPWsPjxU5RXZ97Javv8zMv/MyUhAnGRcLEFDahYaUjNhEji+v38wMATvXX4tolVtWFT/NUJ7NG7TdepOSEAczOLjYz83sC4j1+kbHNAcDjpiE+1/QrvVKDv4OeQ6rVPv6W3cYqDQXQwEBOFfGzejJqvA5bt/9IRF4oNLf4yGlEX24w4IxyBPEAeYEIpwsqDYvtkak9t2mn0FOFSy2t4tTNbhOwYJyAJYORzUZuTiVM4SVp1XPuwfhA/XXYnYs2dQfHSffX8rYn5IQOZhqglzNiYRVblLMOLH0sN7p2qMS0J3WKT9JT61oRoiNzkRi01IQOZIFRmLY0vLZr1KjmkmgRCVeUX4OqsAWdUVyK6pJNNW5oAEZJZ0YikOFa+COiqW6VLmxerDw6m8IrQkZdh7uyK62b0Ogy1IQC6ABuw7dRwtLHfKeIarjUtl+Piiy+ynZuWTHe0viARkBjRg27t5C9UuVnpUvynN4aA+PQeNUfG2VbvfmYw1jHv+ApR5IgGZCZfLCSsvglCrt6+PH9d7xkuuwWDAmTNnoFJ1cOJsNN89G42uQQIyE4qy77bip5BAKRejd2AUKk2/256mRdM0OjrOoq6uHpOTFqbLcQskILM0FZTQIKV9R8jOrkF09w2z/5CgbxkYGEBNTQ3GxshUlLkgAZkjHy4XcVHBCA1UoPlsN3Tj7G52GY1GVFdXo7ubndvqsB0JyDwJhb7ITImxHzmn7h6E1caOQ4KmTT3cunu6UH36tP2kV2J+SEAWgMOhEBkWgJAgpf2AoKlml9nC7CCc1WqFRqNBW1srtFrSnFooEhAH4Plw7UEJD/G3v8RreplZxNTf34dTp07Ze6kIxyABcaCpJ0psVDD8/WRoV/VAp3fNIJzZbEZDQwPOnm13yf28CQmIE8gkQmSlxdoPMe1Q9zut2WWz2eyhaGxshMVCum2dgQTESSiKQnCAAgFKGVpVPegfdOz7wMjIiP2wfJ2O7HDiTCQgTsblcpAcF24fQ+nqHbafHb+Q4ZPRkRG0trVBo1G71TiMuyIBcRGZRARZgggGoxlnO/swNDq33/x6vd5+HFlPT4/TaiT+FwmIiwkFfKQlRaJvcBRtql5YrTOPn0w9Jdra2uxHH9tYNtbiDUhAGDL1fqKUS+wv8VNhOZfR0VHU1FRjaIjsfcUUEhAG8Xk+SIoLQ2iwEu2qPoyN/2ftuMlkQn19PVSqDqZL9HokICwgFQuRmRqNgeExHDhcgYrKSkbOBCf+F9kXiyUoikKQvxz9/T0kHCxCAkIQMyABIYgZkIAQxAxIQAhiBiQgBDEDEhCCmAEJCEHMgASEIGZAAkIQMyABIYgZkIAQxAxIQAhiBiQgBDEDEhCCmAEJyExoGrC6507us8UlGz/MiARkBpTVisQHH4L066+ZLsXhgqwW3D/WjzIzOQF3JiQgF+A7MICYl15G5Kt/A8dDtvRcZxjDKyPd9nB41NFZTkCW3M6S8sQJSJsa0bthA4ZLiu2H67ibmEkzbtEPI8dCziWcLRKQOeCN6RD95tsIOnAI6qt+CH1iAtMlzYrUZsVPJkZxsVEHLtPFuBkSkHkQaTRIfe55jGZno2v9OhjCw5gu6ZyENhsuM2hxuXEMIvIyPi8kIAvgV12DgJpaDOblonPTBpj9/ZguyY5D07jIqLM/NeQ02WxuIUhAFmjqTSTo1GkE1dZDs2oF1GtWgebxGKsny2zArfphxFrJbu+OQALiINzJScR+theB9Q1ovHYzJsJCXXp/Pm3D1vERXGLSkZ4pByLdvA4m7+pF4bMvIPndD8AbH3fBHWmUmPR4daQL60k4HI48QZyAQwOxR08iuqoamoJctK0og0mpcOg9fGgaK0zj2GQYQxxpTjkNCYgT8cwWxB+rQFTVaTSsXYnO4iKAs/CHdsykGffoBpBAguF0JCAuMBWUrD2fIuZYBeo2rsNwStK8riOzWXHtxAguNo6T8QwXIQFxIfnAEJa9+jq6U5JQd8UmmBTyWX2OQ9NYbxzDNRNaSEm3rUuRl3SXoxDWdAalv/8jQiovPAkyyGrBU9o+/FQ/QsLBAPIEYYhgwoCCd96Hdt8BtJcUoTsvBzb+f8dPEiwmbDSOocykB5/RSr0bCQjD5P2DyHl/D1I++xKNa1fBzzqJzWP9KCIzbVmBBIQlhON65L63G8/oh63mSTN5B2cJt3kHGV61Gjau5//ccEE6qNjEbQIysHEjVPdugykkhOlSCC/iNgGZYoiLQ9uvH4X6llsxkeAeazEI9+Z+7yBcLnT5+fY/4sZGhL7xOviDg0xXRXgot3qCfJ8+NRXtDz6EkeJi0G64BJZgP7cOyBSbWIye667H2QceJM0uwuHcPiDTjNHR6Lh3GzQ334xJqZTpcggP4TEBsaMojBUsRvvDj2AsO4fpaggP4H4v6bMwqVBAc9ttEKhU8Nu7F7LKCnDI4fzEPHjWE+R7pppd3TfeiLbHn4A+OZnpcgg35NEBmWYJCIDqrrvR+6OrYBWJmC6HcCNeERA7LhfDq1ah9cknMVxWBtoBK/sIz+d1PyVWiRS911yL9oceIs0u4oK8LiDTTBGRUP3yHnT+7GcwRkQwXQ7BUh7ZizVrFIXxnFyMZ+dAVlmJoPfeBX94mOmqCBbx7oBMs4+fFECXlQX/zz5FwMcfk25hws5rm1jnQvP5GFy/AR333Q9jeDjT5RAsMPeA0BhxSiUsYoyORvtDD6Pn6s2wCoVMl+M0NgBjFPkdOZM5/+sU5wSWhAb6PkyD7nFOSSzB5WJkxQo0P/M0un94BSzy2W3R4w5MoLBbIMVWZTgq+J77C8AR5hwQPwV3JD9d8fjqpYGxUrnvdgA655TGDjaRCEM/+AFaHn0EQ8uK3H5afaMPH7cpQvGyxB9dXOZ2oXcX836+CgVcU3mO4qllOcpUHo/61LFlsY9VLIbmup+gefs2jMfFMl3OnA1wuPitJAB3yUOh8SEbCc3WghugfnJ+1/KCgHVx4cJbQGPAMWWxlyE6Gi333oP2LdfBIhEzXc4FWQC8LZTbm1P7BBK3PFuRSQ55Q/Plc2zpibK/FucqE5Uy3vPffF88F0VheMli1G3fhuH0NKarOS81l4d75KF4Q6yEkbyMz4tDx0GUcr62ONfv7p4+0/Ndg4bbegZMPwUgc+Q92MSiVKL5tlshPtuB8AOHEPx1DbgMHwU4dft6H1/sEspwlC+CjTwxFsQpA4Whwb7q0GDf+9QD5pebWrV/NZpsP3DGfdhCHxuDltgYdK4bRNqb78BfpWakjh6OD3ZI/HGa9Ew5jFOfu5GBfNXqwsA1seHCjaDpM868FxsYAwNw6vafovmStbDwXfcibAPwqa8Ev1CEknA4mEsaphmJsj2rCgMXifiCe2nQrjiXjDlcLjpXLcfBB34FVUEOnN3iqvPxtQfjBWkAxjlkU0ZHc9mbm1DANa0skj+bn6YotFKcSlfdlykWmRR1V1+JA3fcCm1QgMOvP0Jx8JQ0APcoQtDm4+vw6xP/4fKujbAgQd3FhX6LFyVKL+Zx8ek3LQSPpYuMwOG7bsPpy9ZjLMB/wdcbpTj4h1COW5ThOOAr+eYgasJZGJnNy+dz6Zhw0SdTf9o69QWtav1Os4VOZ6IWV7DxeFAXLYG6cDHCKqqQ+sleiHRza2maQOE9oQz/FMlhIl22LsP4v3R8lLiiKMtviULm8xwAM9P1OBVFoXtxPr667y505GfP+mPVPgLcpAzH38VKEg4XY8W/tlTioy/J9b8nIUKxSMDnfMx0Pc5m8/VF7VVX4NgN12DM3++8X6ejOHhZ5If75cEY4JKlO0xgRUCmpSb4tqwuClwXHSm5iKZpFdP1ONtgWgoO3nsHatf9AGbf/3YLWwF8JJDiRmU4dotkZLCPQaz8tZQZL/40IVyQ1dCm+2lPv+lnoBDJdE3OQnO56FheCs2SAkSeqMTpzz7HX2wc9JKZtqzAqifIt4kEXG1+uuLpVUUB8WEBvvfQoLVM1+RMkyIhzi4vwZvxSSQcLMLagEwT+nIteRmK54pz/JN8fbgfMl0P4V1YH5BpfnJef9kS5ca4CNEWAL1M10N4B7cJyBRfHpdOT5C+VpgXkKiU+TwN0CamayI8m1sFZFqAlDtenOt/f2GmMtZfzvuTx68/IRjjlgGZFuDn21OU43dbQoQ8XeDLIe8nhMO5dUCmpSYIzqwuDNwQHyFZA5puYLoewnN4RECmpSWIP19VFJjlJ+M+5emTIAnX8KiA4D/dwpPLcgO2p8VJlgp8OUeZrodwbx4XkGnxUeKKkjz/4oxE6WoOuB+RJwoxHx4bkCkCPoeODRftXVcesD4pWrKOBrqZrolwLx4dkG9LjhV/WpQXkKyQ+jxlX15BELPgNQHBN+MnJXn+23PTZWkCPucDpy8YJ9yeVwVkWnigsH11UeDlaQmSFaDpNqbrIdjLKwMyLT5S/FX5Yv88Dnxe+WYZBkF8h1cHZIpUzNOuK/e/OS9NlqJU+u4AMMZ0TQR7eH1ApoUFCVuLsxR3LstRxkpE3PeZrodgBxKQ7/GT84cLc5RXxEWINgM0M3uIEk6REBPy9+z0mDlNRSIBOQcBj4v0BOk/Vi0NTFFKeY8BmGC6JmcICVJ8Hr+24FobRVczXYuTtW25evmm13ds/UlosNIwlw+SgMxAKOBOFOf5PZKfpkzj86h9TNfjKDRNq6+/unzDod2Pr1n5u1++GXtgZ6547bJtnjY+RIPWZWRF3Xdw12Np22+/bHdQUNCcr0HRNBkMmA2LxcZp7TZu7NSM32620OXOus9Lr/wdbe1O29Cl+6IVOS/ffE3ZHzNS40e//5fmo43BI2/vvlH32ZGtFBDjrCKmPCALRpXzNto2LM1NfPHhX17528S40KGFXIgEZB7a1PqyhjO6F8ChZr/72yw5IyBTv0kXZUY9+afHtj4fGqy84OZ8kz2D3NGdu7Zod+56CqAcv7Gw8wJiCw6Wv/XiEzfel5MR65BpRazc9oft4iPFB8ICBfkVNboHtROmhwCwdlt1P7n04z8/u/WmnEWxsz6V2Cc0wBqw/aZXRZmLPh54+uXnJvuGfsT2TYAtpvHjD//q2jtvuHrFCUdel7yDzJNQwLWWLlY8mh4vyRP4cvYzXc/30UD/lqvKt378j/svmUs4vk10yZLu6MOvXe1//42LuSH+Xzq+SgegMbDlquXXHf/090WODgfIE2Th4iLF1WGB4uVt6rHL27smngUopo/ANWdnxOy4/45Ln8zNiHPIXmKKGzZVKlbnrep/8+OLtDs/fIpDU1mOuO5CBQcpPtl258Zb1y/P73TWPcg7iAOZzDZ+fdvYrV29xgdAUXPvMlnYO4hlcU7C367eWPD4JWuKuuZzgdmYHNJSY2/9+0djb/37fuvwWOZ8r7OAdxBzQmzI+9dcWrbjx1cWO/yJ8X0kIE5gMFmFVbWj947oLL8CRc3prOj5BGTqN+lPflx6980/XN0011rnTa3F0Ovvbhh5ffdTFDDno37nExClQnL417+64rqLV+S1z/V+80UC4kQdanPUGfXY00az9erZfmYuAaFBN9/ww1V3b79rE2M74s+3x2uOAdFmJAU+8eoLd73gr5ROzrvYeSABcYHTZ8YvV2v0fwaFC/4AzTIgtsW58c/97uHrHggNVrJiT7CJj06EzaXHa5YBsQaESnf+6dGtD+Ysiu1zWLFzQHqxXCA7UfJ+ca4yWSnzeXHql+5CrmUxjR+///ZLi9566c572RIOfKvHy89BPV5KhaTm/l9sWnzsg99sZSocIE8Q1+vqnYjuGTL/vHvAeAsFSvr9vz/PE8Qm9xN9cteWdX+4aGXuF35KCbu/af39GPnixBLtK/+6z9o1sOlcX3K+J4ifQlK/dmX2H27evPr18DA/xqe+kIAwpLvPEFffNv6K0Wxb8e3//j8BodHzixvX3nT71nVuefKWdueuwtG/7Xp6sneo9Nv//RwB0Wy5avl9W64ufys06PynbrkaGQdhSFiwsF0sEK5UD4xfelat/x0oxH33K2hjdkbsjgd+ccWT2ZnROqbqXCj5lk3H5KuWlw298e760dfsL/L/c1hrQmzoK4/9cv2dBXmLWDdr+v8HAAD//7WjGi2U1GbqAAAAAElFTkSuQmCC;" parent="1" vertex="1">
          <mxGeometry x="555.5" y="181" width="58" height="58" as="geometry" />
        </mxCell>
        <mxCell id="QRYlAzgC1I8QXgdtpKgS-14" value="Vector-Database" style="text;html=1;align=center;verticalAlign=middle;resizable=0;points=[];autosize=1;strokeColor=none;fillColor=none;fontSize=16;" parent="1" vertex="1">
          <mxGeometry x="522" y="261" width="137" height="31" as="geometry" />
        </mxCell>
        <mxCell id="QRYlAzgC1I8QXgdtpKgS-20" style="edgeStyle=none;curved=1;rounded=0;orthogonalLoop=1;jettySize=auto;html=1;exitX=1;exitY=0.5;exitDx=0;exitDy=0;entryX=0;entryY=0.5;entryDx=0;entryDy=0;entryPerimeter=0;fontSize=12;startSize=8;endSize=8;" parent="1" source="QRYlAzgC1I8QXgdtpKgS-6" target="QRYlAzgC1I8QXgdtpKgS-10" edge="1">
          <mxGeometry relative="1" as="geometry" />
        </mxCell>
        <mxCell id="QRYlAzgC1I8QXgdtpKgS-22" value="Encode" style="text;html=1;align=center;verticalAlign=middle;resizable=0;points=[];autosize=1;strokeColor=none;fillColor=none;fontSize=16;" parent="1" vertex="1">
          <mxGeometry x="151" y="169" width="72" height="31" as="geometry" />
        </mxCell>
      </root>
    </mxGraphModel>
  </diagram>
</mxfile>
